<svg width="26" height="26" viewBox="0 0 26 26" fill="none" xmlns="http://www.w3.org/2000/svg">
<path fill-rule="evenodd" clip-rule="evenodd" d="M0 13C0 20.1682 5.8318 26 13 26C20.1682 26 26 20.1682 26 13C26 5.8318 20.1682 0 13 0C5.8318 0 0 5.8318 0 13ZM19.7692 10.6692C20.2769 10.1616 20.2769 9.33844 19.7692 8.83076C19.2616 8.32308 18.4384 8.32308 17.9308 8.83076L11.7 15.0615L8.71924 12.0808C8.21156 11.5731 7.38844 11.5731 6.88076 12.0808C6.37308 12.5884 6.37308 13.4116 6.88076 13.9192L10.7808 17.8192C11.2884 18.3269 12.1116 18.3269 12.6192 17.8192L19.7692 10.6692Z" fill="#008060"/>
</svg>
