<svg width="20" height="20" viewBox="0 0 20 20" fill="none" xmlns="http://www.w3.org/2000/svg">
<g clip-path="url(#clip0_27_196)">
<path d="M14.0001 20.0009C13.8589 20.0012 13.7192 19.9714 13.5904 19.9134C13.4616 19.8555 13.3466 19.7708 13.2531 19.6649L5.25309 10.6649C5.09038 10.482 5.00049 10.2457 5.00049 10.0009C5.00049 9.75611 5.09038 9.51982 5.25309 9.33692L13.2531 0.336917C13.3403 0.23882 13.446 0.158858 13.5641 0.101597C13.6822 0.0443356 13.8104 0.0108968 13.9414 0.00318958C14.0724 -0.00451768 14.2037 0.0136575 14.3277 0.0566774C14.4517 0.0996974 14.566 0.16672 14.6641 0.253917C14.7622 0.341115 14.8422 0.446781 14.8994 0.564881C14.9567 0.682981 14.9901 0.811204 14.9978 0.942227C15.0055 1.07325 14.9874 1.20451 14.9443 1.32851C14.9013 1.45251 14.8343 1.56682 14.7471 1.66492L7.33709 10.0009L14.7471 18.3369C14.8755 18.4808 14.9595 18.6589 14.9889 18.8495C15.0183 19.0401 14.992 19.2351 14.913 19.4111C14.834 19.587 14.7058 19.7363 14.5438 19.841C14.3818 19.9457 14.193 20.0012 14.0001 20.0009" fill="#5C5F62"/>
</g>
<defs>
<clipPath id="clip0_27_196">
<rect width="20" height="20" fill="white"/>
</clipPath>
</defs>
</svg>
