<svg width="20" height="20" viewBox="0 0 20 20" fill="none" xmlns="http://www.w3.org/2000/svg">
<g clip-path="url(#clip0_27_197)">
<path d="M5.9999 -0.000916648C6.14114 -0.00119611 6.28082 0.0286248 6.40962 0.086562C6.53843 0.144499 6.65341 0.22922 6.7469 0.335082L14.7469 9.33508C14.9096 9.51799 14.9995 9.75427 14.9995 9.99908C14.9995 10.2439 14.9096 10.4802 14.7469 10.6631L6.74691 19.6631C6.65971 19.7612 6.55404 19.8411 6.43594 19.8984C6.31784 19.9557 6.18962 19.9891 6.0586 19.9968C5.92757 20.0045 5.79631 19.9863 5.67231 19.9433C5.54832 19.9003 5.434 19.8333 5.33591 19.7461C5.23781 19.6589 5.15785 19.5532 5.10059 19.4351C5.04332 19.317 5.00989 19.1888 5.00218 19.0578C4.99447 18.9267 5.01265 18.7955 5.05567 18.6715C5.09869 18.5475 5.16571 18.4332 5.25291 18.3351L12.6629 9.99908L5.25291 1.66308C5.12452 1.51916 5.04054 1.34115 5.01111 1.15055C4.98168 0.959942 5.00804 0.764895 5.08703 0.588948C5.16602 0.413001 5.29424 0.263677 5.45623 0.159007C5.61822 0.0543365 5.80704 -0.00120566 5.9999 -0.000916648" fill="#5C5F62"/>
</g>
<defs>
<clipPath id="clip0_27_197">
<rect width="20" height="20" fill="white" transform="translate(20 20) rotate(180)"/>
</clipPath>
</defs>
</svg>
