<svg width="20" height="20" viewBox="0 0 20 20" fill="none" xmlns="http://www.w3.org/2000/svg">
<path d="M11.4138 10.0001L17.7069 3.70709C17.8944 3.51959 17.9997 3.26527 17.9997 3.00009C17.9997 2.73492 17.8944 2.4806 17.7069 2.29309C17.5193 2.10559 17.265 2.00024 16.9998 2.00024C16.7347 2.00024 16.4804 2.10559 16.2928 2.29309L9.99985 8.58609L3.70685 2.29309C3.614 2.20025 3.50378 2.1266 3.38247 2.07635C3.26117 2.02611 3.13115 2.00024 2.99985 2.00024C2.86855 2.00024 2.73853 2.02611 2.61722 2.07635C2.49592 2.1266 2.38569 2.20025 2.29285 2.29309C2.10534 2.4806 2 2.73492 2 3.00009C2 3.26527 2.10534 3.51959 2.29285 3.70709L8.58585 10.0001L2.29285 16.2931C2.10534 16.4806 2 16.7349 2 17.0001C2 17.2653 2.10534 17.5196 2.29285 17.7071C2.48036 17.8946 2.73467 17.9999 2.99985 17.9999C3.26503 17.9999 3.51934 17.8946 3.70685 17.7071L9.99985 11.4141L16.2928 17.7071C16.3855 17.8003 16.4957 17.8742 16.617 17.9247C16.7383 17.9752 16.8684 18.0011 16.9998 18.0011C17.1313 18.0011 17.2614 17.9752 17.3827 17.9247C17.504 17.8742 17.6142 17.8003 17.7069 17.7071C17.7998 17.6143 17.8735 17.5041 17.9238 17.3828C17.9742 17.2615 18 17.1314 18 17.0001C18 16.8688 17.9742 16.7387 17.9238 16.6174C17.8735 16.4961 17.7998 16.3859 17.7069 16.2931L11.4138 10.0001Z" fill="#5C5F62"/>
</svg>
