<svg width="64" height="64" viewBox="0 0 64 64" fill="none" xmlns="http://www.w3.org/2000/svg">
<circle cx="32" cy="32" r="31" fill="#92E6B5" stroke="white" stroke-width="2"/>
<path d="M24.8271 41.3047C30.0195 41.3047 33.2568 37.6611 33.2568 31.8467V31.8213C33.2568 26.0195 30.0068 22.376 24.8271 22.376C19.6348 22.376 16.3721 26.0195 16.3721 31.8213V31.8467C16.3721 37.6611 19.6221 41.3047 24.8271 41.3047ZM24.8271 39.1973C21.0693 39.1973 18.708 36.3535 18.708 31.8467V31.8213C18.708 27.3145 21.082 24.4834 24.8271 24.4834C28.5596 24.4834 30.9209 27.3271 30.9209 31.8213V31.8467C30.9209 36.3154 28.5977 39.1973 24.8271 39.1973ZM36.1006 41H47.4502V38.9434H38.3857V32.6465H46.9805V30.6152H38.3857V24.7373H47.4502V22.6807H36.1006V41Z" fill="#002F19"/>
</svg>
