<svg width="61" height="63" viewBox="0 0 61 63" fill="none" xmlns="http://www.w3.org/2000/svg">
<path d="M51.3758 13.5534C51.3342 13.2504 51.0695 13.0823 50.8498 13.064C50.6318 13.0457 46.3604 12.9808 46.3604 12.9808C46.3604 12.9808 42.7881 9.51175 42.4352 9.15885C42.0824 8.80596 41.3932 8.91249 41.1252 8.99239C41.1219 8.99406 40.4544 9.20047 39.3308 9.54837C39.1427 8.93913 38.8663 8.19005 38.4718 7.43765C37.2001 5.01066 35.3374 3.72725 33.0868 3.72393C33.0835 3.72393 33.0818 3.72393 33.0785 3.72393C32.922 3.72393 32.7672 3.73891 32.6108 3.75222C32.5442 3.67232 32.4776 3.59409 32.4077 3.51751C31.4272 2.46882 30.1705 1.95778 28.664 2.00273C25.7576 2.08596 22.8629 4.18502 20.5158 7.91373C18.8645 10.5371 17.6077 13.8331 17.2515 16.3849C13.914 17.4186 11.5802 18.141 11.5286 18.1577C9.84399 18.687 9.79073 18.7386 9.571 20.3267C9.40787 21.5268 5 55.6113 5 55.6113L41.9392 62L57.9493 58.0199C57.9493 58.0199 51.4174 13.8564 51.3758 13.5534ZM37.4814 10.121C36.6308 10.384 35.6636 10.6836 34.6149 11.0082C34.5933 9.53672 34.4185 7.48926 33.7327 5.71978C35.9383 6.1376 37.0236 8.63284 37.4814 10.121ZM32.6823 11.6075C30.7464 12.2067 28.634 12.8609 26.515 13.5168C27.1109 11.2346 28.2412 8.96243 29.6295 7.47261C30.1455 6.9183 30.8679 6.30073 31.7235 5.94783C32.5275 7.62575 32.7023 10.0011 32.6823 11.6075ZM28.7222 3.93699C29.4047 3.92201 29.979 4.07183 30.4701 4.39476C29.6844 4.80259 28.9253 5.38853 28.2129 6.15258C26.3668 8.13346 24.9519 11.208 24.3876 14.1743C22.6281 14.7186 20.9069 15.253 19.3222 15.7424C20.3227 11.0732 24.2361 4.06683 28.7222 3.93699Z" fill="#95BF47"/>
<path d="M50.8514 13.0658C50.6334 13.0475 46.362 12.9826 46.362 12.9826C46.362 12.9826 42.7898 9.51356 42.4369 9.16067C42.3054 9.02916 42.1273 8.96091 41.9408 8.93262L41.9425 61.9985L57.951 58.0201C57.951 58.0201 51.4191 13.8582 51.3775 13.5552C51.3358 13.2522 51.0695 13.0841 50.8514 13.0658Z" fill="#5E8E3E"/>
<path d="M33.0668 21.2971L31.2075 28.2534C31.2075 28.2534 29.1334 27.3096 26.6748 27.4644C23.0692 27.6925 23.0309 29.9663 23.0676 30.5373C23.264 33.6484 31.4488 34.3276 31.9083 41.6152C32.2695 47.3481 28.867 51.2699 23.9648 51.5795C18.0804 51.9507 14.8411 48.48 14.8411 48.48L16.0879 43.1766C16.0879 43.1766 19.3488 45.6369 21.9589 45.4721C23.6635 45.3639 24.2727 43.9773 24.2111 42.9968C23.9548 38.9385 17.2897 39.1782 16.8686 32.5098C16.514 26.8985 20.1995 21.2122 28.331 20.6995C31.4638 20.4981 33.0668 21.2971 33.0668 21.2971Z" fill="white"/>
</svg>
