<svg width="20" height="20" viewBox="0 0 20 20" fill="none" xmlns="http://www.w3.org/2000/svg">
<path d="M14 10C14 8.89543 13.5523 7.89543 12.8284 7.17157L14.2426 5.75736C15.3284 6.84315 16 8.34315 16 10C16 13.3137 13.3137 16 10 16C6.68629 16 4 13.3137 4 10C4 7.027 6.16229 4.55904 9 4.08296V2.06189C5.05369 2.55399 2 5.92038 2 10C2 14.4183 5.58172 18 10 18C14.4183 18 18 14.4183 18 10C18 7.79086 17.1046 5.79087 15.6569 4.34315L17.0711 2.92894C18.8807 4.73859 20 7.23858 20 10C20 15.5228 15.5228 20 10 20C4.47715 20 0 15.5228 0 10C0 4.47715 4.47715 0 10 0C10.3375 0 10.6711 0.0167194 11 0.0493752V8.26756C11.5978 8.61337 12 9.25972 12 10C12 11.1046 11.1046 12 10 12C8.89543 12 8 11.1046 8 10C8 9.25972 8.4022 8.61337 9 8.26756V6.12602C7.27477 6.57006 6 8.13616 6 10C6 12.2091 7.79086 14 10 14C12.2091 14 14 12.2091 14 10Z" fill="#5C5F62"/>
</svg>
