<svg width="20" height="20" viewBox="0 0 20 20" fill="none" xmlns="http://www.w3.org/2000/svg">
<path d="M1.7911 2.2534L1.19407 5.83559C1.09248 6.44512 1.56252 6.99999 2.18046 6.99999H3.07295C3.64111 6.99999 4.1605 6.67898 4.41459 6.17081L5 4.99999L5.58541 6.17081C5.8395 6.67898 6.35889 6.99999 6.92705 6.99999H8.07295C8.64111 6.99999 9.1605 6.67898 9.41459 6.17081L10 4.99999L10.5854 6.17081C10.8395 6.67898 11.3589 6.99999 11.9271 6.99999H13.073C13.6411 6.99999 14.1605 6.67898 14.4146 6.17081L15 4.99999L15.5854 6.17081C15.8395 6.67898 16.3589 6.99999 16.9271 6.99999H17.8195C18.4375 6.99999 18.9075 6.44512 18.8059 5.83559L18.2089 2.2534C18.0884 1.53012 17.4626 1 16.7293 1H3.27069C2.53743 1 1.91165 1.53012 1.7911 2.2534Z" fill="#5C5F62"/>
<path d="M18 9H2V17.5C2 18.3284 2.67157 19 3.5 19H7V12H13V19H16.5C17.3284 19 18 18.3284 18 17.5V9Z" fill="#5C5F62"/>
</svg>
