<svg width="20" height="20" viewBox="0 0 20 20" fill="none" xmlns="http://www.w3.org/2000/svg">
<path fill-rule="evenodd" clip-rule="evenodd" d="M2.5 1C1.67157 1 1 1.67157 1 2.5V17.5C1 18.3284 1.67157 19 2.5 19H17.5C18.3284 19 19 18.3284 19 17.5V2.5C19 1.67157 18.3284 1 17.5 1H2.5ZM3 3V14H6.5C7.27479 14 7.88768 14.6623 8.42584 15.2439C8.46292 15.2839 8.50017 15.3242 8.53657 15.3632C8.90168 15.755 9.42223 16 10 16C10.5778 16 11.0983 15.755 11.4634 15.3632C11.5 15.324 11.5368 15.2842 11.574 15.244C12.1122 14.6624 12.7252 14 13.5 14H17V3H3Z" fill="#5C5F62"/>
</svg>
