<svg width="20" height="20" viewBox="0 0 20 20" fill="none" xmlns="http://www.w3.org/2000/svg">
<g clip-path="url(#clip0_1745_29)">
<path fill-rule="evenodd" clip-rule="evenodd" d="M19.9284 9.62857C17.7913 4.28591 13.6814 1.85131 9.57325 2.0638C5.51243 2.27384 1.68101 5.06556 0.0569191 9.66715L-0.0605469 9.99997L0.0569191 10.3328C1.68101 14.9344 5.51243 17.7261 9.57325 17.9361C13.6814 18.1486 17.7913 15.714 19.9284 10.3714L20.0769 9.99997L19.9284 9.62857ZM10 15C12.7614 15 15 12.7614 15 9.99997C15 7.23855 12.7614 4.99997 10 4.99997C7.23858 4.99997 5 7.23855 5 9.99997C5 12.7614 7.23858 15 10 15Z" fill="#5C5F62"/>
<path d="M13 9.99997C13 11.6568 11.6569 13 10 13C8.34315 13 7 11.6568 7 9.99997C7 8.34312 8.34315 6.99997 10 6.99997C11.6569 6.99997 13 8.34312 13 9.99997Z" fill="#5C5F62"/>
</g>
<defs>
<clipPath id="clip0_1745_29">
<rect width="20" height="20" fill="white"/>
</clipPath>
</defs>
</svg>
